<?xml version="1.0" encoding="UTF-8" standalone="no"?>
<svg
   xmlns:dc="http://purl.org/dc/elements/1.1/"
   xmlns:cc="http://creativecommons.org/ns#"
   xmlns:rdf="http://www.w3.org/1999/02/22-rdf-syntax-ns#"
   xmlns:svg="http://www.w3.org/2000/svg"
   xmlns="http://www.w3.org/2000/svg"
   xmlns:sodipodi="http://sodipodi.sourceforge.net/DTD/sodipodi-0.dtd"
   xmlns:inkscape="http://www.inkscape.org/namespaces/inkscape"
   inkscape:export-ydpi="96"
   inkscape:export-xdpi="96"
   inkscape:export-filename="C:\Users\D-Rio\Desktop\logoK - Copy.png"
   xml:space="preserve"
   width="39.401428mm"
   height="39.402611mm"
   style="clip-rule:evenodd;fill-rule:evenodd;image-rendering:optimizeQuality;shape-rendering:geometricPrecision;text-rendering:geometricPrecision"
   viewBox="0 0 39.40143 39.402612"
   version="1.1"
   id="svg24"
   sodipodi:docname="logoK - Copy.svg"
   inkscape:version="1.0 (4035a4fb49, 2020-05-01)"><metadata
   id="metadata28"><rdf:RDF><cc:Work
       rdf:about=""><dc:format>image/svg+xml</dc:format><dc:type
         rdf:resource="http://purl.org/dc/dcmitype/StillImage" /></cc:Work></rdf:RDF></metadata><sodipodi:namedview
   inkscape:document-rotation="0"
   pagecolor="#ffffff"
   bordercolor="#666666"
   borderopacity="1"
   objecttolerance="10"
   gridtolerance="10"
   guidetolerance="10"
   inkscape:pageopacity="0"
   inkscape:pageshadow="2"
   inkscape:window-width="1366"
   inkscape:window-height="715"
   id="namedview26"
   showgrid="false"
   inkscape:zoom="1.4677823"
   inkscape:cx="10.659241"
   inkscape:cy="54.106161"
   inkscape:window-x="-8"
   inkscape:window-y="1072"
   inkscape:window-maximized="1"
   inkscape:current-layer="Capa_x0020_1" />
 <defs
   id="defs4">
  <style
   type="text/css"
   id="style2">
   <![CDATA[
    .str0 {stroke:#373435;stroke-width:0.2}
    .fil0 {fill:#373435}
   ]]>
  </style>
 </defs>
 <g
   id="Capa_x0020_1"
   style="fill:#000000;stroke:#ffffff"
   transform="matrix(1.1123233,0,0,1.1077116,-35.436194,-125.33396)">
  <metadata
   id="CorelCorpID_0Corel-Layer" />
  
  
  
  
  
  
  
  
 <rect
   inkscape:export-ydpi="96"
   inkscape:export-xdpi="96"
   ry="6.1838326"
   y="113.14674"
   x="31.857819"
   height="35.571182"
   width="35.422642"
   id="rect17"
   style="fill:#0b1728;stroke:none;stroke-width:0.257186" /><path
   inkscape:export-ydpi="96"
   inkscape:export-xdpi="96"
   style="clip-rule:evenodd;fill:#ffffff;fill-rule:evenodd;stroke:#ffffff;stroke-width:0.2;image-rendering:optimizeQuality;shape-rendering:geometricPrecision;text-rendering:geometricPrecision"
   id="path11"
   d="m 41.686947,146.12703 4.020542,-0.004 -0.0093,-8.0844 c 0.920488,-0.13378 1.828623,-0.33751 2.71823,-0.61111 1.139092,-0.35271 2.235051,-0.8148 3.278561,-1.38641 l 6.086094,10.11541 4.36835,0.0364 -6.67407,-12.35923 c 0.48642,-0.45911 0.96666,-0.9273 1.43768,-1.40461 0.64023,-0.64771 1.36368,-1.21923 1.89009,-1.95804 0.0893,-0.12478 0.14165,-0.2707 0.14165,-0.42259 l -0.003,-7.78349 -3.94359,-0.006 v 6.14466 c -0.04,0.0974 -0.0954,0.19157 -0.1539,0.2797 -0.25546,0.3892 -0.587978,0.72061 -0.911177,1.05812 -0.966659,1.01241 -2.087223,1.87281 -3.309342,2.56602 -1.496111,0.84532 -3.130734,1.42291 -4.830058,1.70571 l -0.03078,-18.34268 -4.085141,0.006 z"
   class="fil0 str0" /></g>
</svg>
