<?xml version="1.0" encoding="UTF-8" standalone="no"?>
<svg
   xmlns:dc="http://purl.org/dc/elements/1.1/"
   xmlns:cc="http://creativecommons.org/ns#"
   xmlns:rdf="http://www.w3.org/1999/02/22-rdf-syntax-ns#"
   xmlns:svg="http://www.w3.org/2000/svg"
   xmlns="http://www.w3.org/2000/svg"
   xmlns:sodipodi="http://sodipodi.sourceforge.net/DTD/sodipodi-0.dtd"
   xmlns:inkscape="http://www.inkscape.org/namespaces/inkscape"
   inkscape:version="1.0 (4035a4fb49, 2020-05-01)"
   sodipodi:docname="logoK.svg"
   id="svg24"
   version="1.1"
   viewBox="0 0 199.99984 35.011113"
   style="clip-rule:evenodd;fill-rule:evenodd;image-rendering:optimizeQuality;shape-rendering:geometricPrecision;text-rendering:geometricPrecision"
   height="35.011112mm"
   width="199.99983mm"
   xml:space="preserve"><metadata
   id="metadata28"><rdf:RDF><cc:Work
       rdf:about=""><dc:format>image/svg+xml</dc:format><dc:type
         rdf:resource="http://purl.org/dc/dcmitype/StillImage" /></cc:Work></rdf:RDF></metadata><sodipodi:namedview
   inkscape:current-layer="svg24"
   inkscape:window-maximized="1"
   inkscape:window-y="1072"
   inkscape:window-x="-8"
   inkscape:cy="107.88079"
   inkscape:cx="375.72447"
   inkscape:zoom="0.73389114"
   showgrid="false"
   id="namedview26"
   inkscape:window-height="715"
   inkscape:window-width="1366"
   inkscape:pageshadow="2"
   inkscape:pageopacity="0"
   guidetolerance="10"
   gridtolerance="10"
   objecttolerance="10"
   borderopacity="1"
   bordercolor="#666666"
   pagecolor="#ffffff" />
 <defs
   id="defs4">
  <style
   id="style2"
   type="text/css">
   <![CDATA[
    .str0 {stroke:#373435;stroke-width:0.2}
    .fil0 {fill:#373435}
   ]]>
  </style>
 </defs>
 <g
   transform="matrix(1.1123233,0,0,1.1077116,-8.9778619,-117.4767)"
   style="fill:#000000;stroke:#ffffff"
   id="Capa_x0020_1">
  <metadata
   id="CorelCorpID_0Corel-Layer" />
  <path
   style="fill:#000000;stroke:#ffffff"
   id="path7"
   d="m 180.736,116.588 c 0.1794,0.0304 0.3345,0.1338 0.4317,0.2858 0.1004,0.1581 0.0578,0.3618 0.0578,0.5533 l -0.009,2.4992 c -0.1582,0.529 -0.4895,0.9881 -0.9365,1.3104 -0.3739,0.2676 -0.8452,0.3344 -1.2951,0.4439 -0.669,0.1612 -1.353,0.2493 -2.0371,0.3314 -1.0611,0.1277 -2.1191,0.2919 -3.1589,0.5473 -1.1979,0.2949 -2.3989,0.6293 -3.4478,1.2739 -1.9094,1.1705 -3.5177,2.8579 -4.0011,5.0226 -1.2709,5.6764 5.1747,9.5711 11.1308,7.7925 1.2039,-0.3587 2.2711,-1.052 3.2683,-1.8181 0.301,-0.2311 0.5868,-0.4804 0.8544,-0.748 0.2189,0.3223 0.4621,0.6324 0.7236,0.9213 0.4348,0.4834 0.83,1.0215 1.3985,1.3286 0.5838,0.3162 1.2679,0.3679 1.9337,0.4439 0.6993,0.079 1.4077,0.079 2.107,0 l 0.0182,-3.1012 c -0.3222,-0.079 -0.6385,-0.1885 -0.9364,-0.3344 -0.4621,-0.222 -0.9547,-0.4165 -1.28,-0.8027 -0.5412,-0.6415 -0.4378,-1.5779 -0.4378,-2.4444 l -0.003,-16.9743 c -0.009,-0.0913 -0.0516,-0.1733 -0.1124,-0.2402 -0.0517,-0.0578 -0.1156,-0.1003 -0.1886,-0.1277 l -15.7885,-0.003 c -0.0791,0.009 -0.1521,0.0487 -0.2129,0.1034 -0.0699,0.0639 -0.1155,0.146 -0.1307,0.2402 l -0.009,3.2988 c 0.0122,0.0365 0.0365,0.073 0.0638,0.1003 0.0487,0.0487 0.1155,0.0791 0.1855,0.0791 z m 0.3435,8.6711 c 0.6628,2.5509 -0.2857,5.2507 -2.3988,6.8256 -1.1097,0.827 -2.4566,1.277 -3.84,1.2861 -0.9394,0.006 -1.9002,-0.076 -2.6967,-0.5625 -0.7814,-0.4773 -1.4655,-1.1401 -1.6844,-2.0188 -0.1733,-0.6962 -0.0912,-1.4289 0.2219,-2.0735 0.2493,-0.5108 0.6993,-0.8847 1.131,-1.2587 1.1341,-0.979 2.6847,-1.2618 4.1562,-1.6296 1.6722,-0.4166 3.39,-0.6081 5.1108,-0.5686 z"
   class="fil0 str0" />
  <path
   style="fill:#000000;stroke:#ffffff"
   id="path9"
   d="m 124.666,135.144 c 2.338,1.7057 5.1899,2.5782 8.0661,2.3289 2.0978,-0.1824 4.1166,-0.8939 5.8071,-2.1464 0.529,-0.3923 1.0155,-0.8392 1.4502,-1.3317 l -3.1924,-2.8032 c -0.2462,0.2644 -0.5138,0.5107 -0.8026,0.7296 -0.9882,0.7571 -2.0796,1.4016 -3.2988,1.6205 -2.0401,0.368 -4.0984,-0.3526 -5.725,-1.663 -1.0185,-0.8179 -1.7786,-1.9063 -2.3107,-3.1012 -0.0486,-0.1094 -0.1094,-0.2159 -0.1459,-0.3314 -0.1916,-0.5959 -0.2889,-1.2192 -0.2889,-1.8455 l 15.5393,-0.0152 -0.0243,-11.0973 c -1.7421,-1.7543 -4.0041,-2.8975 -6.4486,-3.2593 -2.5022,-0.3709 -5.044,0.1521 -7.2847,1.3378 -4.9467,2.6208 -7.309,8.3306 -6.181,13.8488 0.6323,3.086 2.3015,5.877 4.8402,7.7286 z m 10.9727,-12.1188 c -1.6236,0.1216 -3.2471,0.1945 -4.8738,0.2219 -2.1768,0.0365 -4.3537,-0.0152 -6.5276,-0.152 l -0.0912,-0.3101 c -0.0608,-0.4196 0.0365,-0.8422 0.155,-1.2527 0.295,-1.0124 0.9061,-1.8972 1.6084,-2.6907 1.1006,-1.2435 2.5174,-2.1799 4.1288,-2.5721 1.204,-0.2919 2.4597,-0.3406 3.6484,-0.006 0.6446,0.1824 1.3925,0.2402 1.7483,0.7783 0.1915,0.2919 0.2341,0.6537 0.2949,1.0003 0.1216,0.6841 0.1246,1.3834 0.1216,2.0796 -0.003,0.9729 -0.076,1.9428 -0.2128,2.9036 z"
   class="fil0 str0" />
  <path
   style="fill:#000000;stroke:#ffffff"
   id="path11"
   d="m 8.1804,136.661 3.9708,-0.003 -0.0092,-8.0843 c 0.9091,-0.1338 1.806,-0.3375 2.6846,-0.6111 1.125,-0.3527 2.2074,-0.8148 3.238,-1.3864 l 6.0108,10.1153 4.3143,0.0365 -6.5915,-12.3591 c 0.4804,-0.4591 0.9547,-0.9273 1.4199,-1.4046 0.6323,-0.6477 1.3468,-1.2192 1.8667,-1.958 0.0882,-0.1247 0.1399,-0.2707 0.1399,-0.4226 l -0.003,-7.7834 -3.8948,-0.006 v 6.1446 c -0.0395,0.0973 -0.0942,0.1915 -0.152,0.2797 -0.2523,0.3892 -0.5807,0.7206 -0.8999,1.0581 -0.9547,1.0124 -2.0614,1.8728 -3.2684,2.566 -1.4776,0.8453 -3.092,1.4229 -4.7703,1.7057 l -0.0304,-18.3425 -4.0346,0.006 z"
   class="fil0 str0" />
  <path
   style="fill:#000000;stroke:#ffffff"
   id="path13"
   d="m 50.7242,112.779 v 14.6788 c -0.0274,2.4931 0.3679,5.0531 1.9823,6.9108 0.8817,1.0124 2.0127,1.7664 3.241,2.3075 2.484,1.0916 5.3115,1.2375 7.7438,0.07 0.9851,-0.4743 1.7877,-1.2466 2.636,-1.9428 0.152,-0.1247 0.3041,-0.2554 0.45,-0.3892 l 0.4864,2.3077 3.4174,0.003 -0.0213,-23.961 -3.9251,0.003 0.003,14.3748 c 0,1.4745 -0.1276,2.9978 -1.0033,4.1592 -1.0732,1.426 -2.8549,2.0675 -4.6578,2.1343 -1.9763,0.073 -3.9525,-0.5898 -5.1595,-2.1343 -0.982,-1.2587 -1.0945,-2.9461 -1.0945,-4.5697 l -0.0031,-13.9613 z"
   class="fil0 str0" />
  <path
   style="fill:#000000;stroke:#ffffff"
   id="path15"
   d="m 81.5808,130.346 -3.3505,1.4684 c 0.225,0.6963 0.5473,1.356 0.9577,1.961 1.1006,1.6175 2.8944,2.5692 4.7704,3.1863 1.6904,0.5564 3.4872,0.7966 5.2081,0.377 3.3443,-0.8178 6.2722,-3.2258 6.3209,-6.5701 0.0273,-1.9276 -0.8726,-3.7275 -2.2468,-5.0957 -0.8027,-0.7996 -1.8243,-1.3347 -2.861,-1.7999 -0.526,-0.2341 -1.0641,-0.4348 -1.6053,-0.6324 -0.827,-0.301 -1.6357,-0.6446 -2.4506,-0.979 -0.6111,-0.2493 -1.2465,-0.4591 -1.7573,-0.8726 -0.5047,-0.4104 -1.0033,-0.8664 -1.1887,-1.4806 -0.1886,-0.6203 -0.0639,-1.283 0.1702,-1.8942 0.7996,-2.0765 3.466,-2.4292 5.5335,-1.3408 0.611,0.3223 1.058,0.8757 1.5444,1.3743 0.219,0.2219 0.4196,0.4591 0.6081,0.7084 l 3.0556,-1.5323 c -0.6142,-1.9428 -2.0097,-3.542 -3.8491,-4.4147 -1.2374,-0.5867 -2.6269,-0.7266 -3.9981,-0.6597 -1.0641,0.0517 -2.1221,0.228 -3.0859,0.675 -1.4716,0.684 -2.6908,1.8181 -3.4022,3.2744 -1.2526,2.5661 -0.9334,5.6673 1.0945,7.6404 0.5412,0.526 1.2071,0.8939 1.8699,1.2587 0.9728,0.5351 2.0066,0.9456 3.0586,1.3013 1.0945,0.3679 2.2164,0.7023 3.1497,1.3682 0.9335,0.6658 1.9884,1.3195 2.2012,2.4079 0.1004,0.5108 0.0609,1.0398 -0.0881,1.5385 -0.5108,1.7117 -2.5661,2.1921 -4.4541,2.1252 -1.1249,-0.0396 -2.1891,-0.4774 -3.1042,-1.1371 -0.5899,-0.4257 -1.0246,-1.0246 -1.5111,-1.5658 -0.2037,-0.225 -0.3983,-0.4561 -0.5898,-0.6901 z"
   class="fil0 str0" />
  <path
   style="fill:#000000;stroke:#ffffff"
   id="path17"
   d="m 104.754,106.154 0.0274,6.7071 -2.9036,0.006 0.0274,3.7214 2.5082,-0.006 -0.0182,13.6633 c -0.0182,1.7756 0.6902,3.4843 1.9884,4.6913 1.3378,1.2465 3.2106,1.657 5.0561,1.6205 l 1.1979,0.003 -0.003,-3.6879 -0.8482,-0.003 c -0.7024,-0.003 -1.4199,-0.0851 -1.9976,-0.4712 -0.7722,-0.5169 -1.2526,-1.3652 -1.2952,-2.2924 l -0.003,-13.5235 5.1412,0.003 -0.0121,-3.7549 -5.1504,0.0243 -0.006,-6.6827 z"
   class="fil0 str0" />
  <path
   style="fill:#000000;stroke:#ffffff"
   id="path19"
   d="m 35.264,106.163 0.0121,24.1435 c 0,0.83 0.1642,1.6509 0.4652,2.4262 0.4469,1.1493 1.0094,2.2833 1.9914,3.0039 1.0733,0.7874 2.4445,0.9699 3.7883,0.9668 l 2.0766,-0.003 -0.0091,-3.6637 h -1.0946 c -0.3344,0 -0.6719,0.0305 -0.9911,-0.0547 -0.5139,-0.1398 -0.9577,-0.4591 -1.2922,-0.8725 -0.2858,-0.3558 -0.4348,-0.7966 -0.5564,-1.2405 -0.1155,-0.4196 -0.155,-0.8574 -0.155,-1.2922 l 0.0091,-23.4229 z"
   class="fil0 str0" />
  <path
   style="fill:#000000;stroke:#ffffff"
   id="path21"
   d="m 148.952,112.806 c -0.1186,0.0304 -0.2189,0.1034 -0.2888,0.2037 -0.0609,0.0882 -0.0913,0.1946 -0.0913,0.301 l -0.0213,23.3986 3.8948,0.003 0.009,-19.6347 c 0.0304,-0.1034 0.0851,-0.1976 0.1581,-0.2766 0.1003,-0.1095 0.231,-0.1825 0.377,-0.2099 h 7.908 c 0.0486,-0.0152 0.0942,-0.0425 0.1246,-0.0851 0.0243,-0.0304 0.0426,-0.0669 0.0456,-0.1064 l -0.006,-3.1163 c 0,-0.0913 0,-0.1886 -0.0426,-0.2676 -0.0517,-0.0973 -0.1399,-0.1703 -0.2463,-0.2007 z"
   class="fil0 str0" />
 </g>
</svg>
